<mxfile host="65bd71144e">
    <diagram id="cLUc2Fpf6hISPeNc6wsJ" name="Page-1">
        <mxGraphModel dx="2698" dy="1115" grid="1" gridSize="10" guides="1" tooltips="1" connect="1" arrows="1" fold="1" page="1" pageScale="1" pageWidth="827" pageHeight="1169" math="0" shadow="0">
            <root>
                <mxCell id="0"/>
                <mxCell id="1" parent="0"/>
                <mxCell id="3" value="" style="sketch=0;aspect=fixed;html=1;points=[];align=center;image;fontSize=12;image=img/lib/mscae/Kubernetes.svg;" parent="1" vertex="1">
                    <mxGeometry x="-60" y="910" width="50" height="48" as="geometry"/>
                </mxCell>
                <mxCell id="8" value="" style="whiteSpace=wrap;html=1;shadow=1;" parent="1" vertex="1">
                    <mxGeometry x="147.5" y="575" width="1102.5" height="480" as="geometry"/>
                </mxCell>
                <mxCell id="9" value="" style="aspect=fixed;html=1;points=[];align=center;image;fontSize=12;image=img/lib/azure2/containers/Kubernetes_Services.svg;shadow=1;" parent="1" vertex="1">
                    <mxGeometry x="120" y="560" width="68" height="60" as="geometry"/>
                </mxCell>
                <mxCell id="40" style="edgeStyle=none;html=1;" parent="1" source="12" target="24" edge="1">
                    <mxGeometry relative="1" as="geometry"/>
                </mxCell>
                <mxCell id="41" style="edgeStyle=none;html=1;entryX=0.516;entryY=0.969;entryDx=0;entryDy=0;entryPerimeter=0;" parent="1" source="12" target="38" edge="1">
                    <mxGeometry relative="1" as="geometry"/>
                </mxCell>
                <mxCell id="12" value="" style="sketch=0;aspect=fixed;html=1;points=[];align=center;image;fontSize=12;image=img/lib/mscae/Load_Balancer_feature.svg;" parent="1" vertex="1">
                    <mxGeometry x="430" y="1090" width="50" height="50" as="geometry"/>
                </mxCell>
                <mxCell id="17" value="" style="shape=mxgraph.mockup.containers.marginRect;rectMarginTop=10;strokeColor=#666666;strokeWidth=1;dashed=0;rounded=1;arcSize=5;recursiveResize=0;shadow=1;" parent="1" vertex="1">
                    <mxGeometry x="190" y="600" width="300" height="430" as="geometry"/>
                </mxCell>
                <mxCell id="18" value="Node 1" style="shape=rect;strokeColor=none;fillColor=#008cff;strokeWidth=1;dashed=0;rounded=1;arcSize=20;fontColor=#ffffff;fontSize=17;spacing=2;spacingTop=-2;align=left;autosize=1;spacingLeft=4;resizeWidth=0;resizeHeight=0;perimeter=none;shadow=1;" parent="17" vertex="1">
                    <mxGeometry x="5" width="80" height="30" as="geometry"/>
                </mxCell>
                <mxCell id="57" value="" style="sketch=0;html=1;dashed=0;whitespace=wrap;points=[[0.005,0.63,0],[0.1,0.2,0],[0.9,0.2,0],[0.5,0,0],[0.995,0.63,0],[0.72,0.99,0],[0.5,1,0],[0.28,0.99,0]];verticalLabelPosition=bottom;align=center;verticalAlign=top;shape=mxgraph.kubernetes.icon;prIcon=ns" vertex="1" parent="17">
                    <mxGeometry x="19.999999999999986" y="190" width="100" height="94" as="geometry"/>
                </mxCell>
                <mxCell id="58" value="" style="shape=image;verticalLabelPosition=bottom;verticalAlign=top;imageAspect=1;aspect=fixed;image=data:image/svg+xml,PHN2ZyB4bWxucz0iaHR0cDovL3d3dy53My5vcmcvMjAwMC9zdmciIHZpZXdCb3g9Ii00LjIxIDQ5LjU0IDQzOS45MiAzMzIuNjciPjxwYXRoIGZpbGw9IiNiMzFhYWIiIGQ9Ik0xMDkuOCAyMTAuNmwuNiAyNS40IDI2LjggMTYuNi0uNi0yNS40em02NS40IDEwNS44bC0uNi0yNC45LTIzLjUtMTQuNmMtLjMtLjItLjctLjUtMS0uN2wuNiAyNSAyNC41IDE1LjJ6TTkxLjUgMzUwbC02MS4zLTM4LTEuNS02My43IDMwLjEtMTMtLjYtMjUuNS00OCAyMC43Yy0zLjcgMS42LTUuOSA1LTUuOCA4LjlsMS44IDc2LjVjLjEgMy45IDIuNSA3LjggNi4zIDEwLjJMODYgMzcxLjdjMy40IDIuMSA3LjYgMi43IDExIDEuNi40LS4xLjctLjIgMS0uNGw0NS4xLTE5LjQtMjQuNS0xNS4yTDkxLjUgMzUweiIvPjxwYXRoIGZpbGw9IiNkMTYzY2UiIGQ9Ik0yODkuNiAyMDkuMWMtLjEtNC42LTIuOS05LjEtNy4zLTExLjlMMTkzIDE0MS45bC0yLjggMS4yLjYgMjYuOCA3MC43IDQzLjggMS43IDcxLjYgMjcgMTYuNyAxLjUtLjYtMi4xLTkyLjN6TTE4Mi43IDMzNC44bC04Mi45LTUxLjQtMi04Ni4zIDM3LjgtMTYuMy0uNy0yOS43LTU4LjcgMjUuM2MtNC4zIDEuOS02LjkgNS44LTYuOCAxMC40TDcxLjcgMjg4Yy4xIDQuNiAyLjkgOS4xIDcuMyAxMS44bDk3LjIgNjAuM2M0IDIuNSA4LjggMy4xIDEyLjkgMS45LjQtLjEuOC0uMyAxLjItLjVsNTcuNC0yNC43LTI4LjYtMTcuNy0zNi40IDE1Ljd6Ii8+PHBhdGggZmlsbD0iI2UxM2VhZiIgZD0iTTQxNS45IDEzOC4zTDI5MS4zIDYxYy00LjYtMi44LTEwLjEtMy42LTE0LjgtMi4xLS41LjEtLjkuMy0xLjQuNWwtMTIxLjYgNTIuNGMtNC45IDIuMS03LjkgNi42LTcuOCAxMS45bDMuMSAxMjkuNmMuMSA1LjMgMy4zIDEwLjQgOC40IDEzLjVMMjgxLjggMzQ0YzQuNiAyLjggMTAuMSAzLjYgMTQuNyAyLjEuNS0uMS45LS4zIDEuNC0uNWwxMjEuNi01Mi40YzQuOS0yLjEgNy45LTYuNyA3LjgtMTEuOWwtMy0xMjkuNmMtLjEtNS4xLTMuMy0xMC4zLTguNC0xMy40ek0yODkuMyAzMTUuMkwxODEgMjQ4LjFsLTIuNy0xMTIuNyAxMDUuNi00NS41TDM5Mi4yIDE1N2wyLjcgMTEyLjctMTA1LjYgNDUuNXoiLz48L3N2Zz4=;" vertex="1" parent="17">
                    <mxGeometry x="44.999999999999986" y="210" width="50" height="50" as="geometry"/>
                </mxCell>
                <mxCell id="21" value="" style="shape=mxgraph.mockup.containers.marginRect;rectMarginTop=10;strokeColor=#666666;strokeWidth=1;dashed=0;rounded=1;arcSize=5;recursiveResize=0;shadow=1;" parent="1" vertex="1">
                    <mxGeometry x="901" y="600" width="300" height="430" as="geometry"/>
                </mxCell>
                <mxCell id="22" value="Node 3" style="shape=rect;strokeColor=none;fillColor=#008cff;strokeWidth=1;dashed=0;rounded=1;arcSize=20;fontColor=#ffffff;fontSize=17;spacing=2;spacingTop=-2;align=left;autosize=1;spacingLeft=4;resizeWidth=0;resizeHeight=0;perimeter=none;shadow=1;" parent="21" vertex="1">
                    <mxGeometry x="5" width="80" height="30" as="geometry"/>
                </mxCell>
                <mxCell id="24" value="" style="aspect=fixed;html=1;points=[];align=center;image;fontSize=12;image=img/lib/azure2/networking/Network_Interfaces.svg;shadow=1;" parent="1" vertex="1">
                    <mxGeometry x="170" y="1220" width="45.33" height="40" as="geometry"/>
                </mxCell>
                <mxCell id="26" value="kube - proxy" style="swimlane;shadow=1;" parent="1" vertex="1">
                    <mxGeometry x="135.32999999999998" y="440" width="760" height="90" as="geometry"/>
                </mxCell>
                <mxCell id="35" value="" style="sketch=0;html=1;dashed=0;whitespace=wrap;fillColor=#2875E2;strokeColor=#ffffff;points=[[0.005,0.63,0],[0.1,0.2,0],[0.9,0.2,0],[0.5,0,0],[0.995,0.63,0],[0.72,0.99,0],[0.5,1,0],[0.28,0.99,0]];verticalLabelPosition=bottom;align=center;verticalAlign=top;shape=mxgraph.kubernetes.icon;prIcon=k_proxy;shadow=1;" parent="26" vertex="1">
                    <mxGeometry x="44" y="30" width="50" height="48" as="geometry"/>
                </mxCell>
                <mxCell id="36" value="" style="sketch=0;html=1;dashed=0;whitespace=wrap;fillColor=#2875E2;strokeColor=#ffffff;points=[[0.005,0.63,0],[0.1,0.2,0],[0.9,0.2,0],[0.5,0,0],[0.995,0.63,0],[0.72,0.99,0],[0.5,1,0],[0.28,0.99,0]];verticalLabelPosition=bottom;align=center;verticalAlign=top;shape=mxgraph.kubernetes.icon;prIcon=k_proxy;shadow=1;" parent="26" vertex="1">
                    <mxGeometry x="390" y="30" width="50" height="48" as="geometry"/>
                </mxCell>
                <mxCell id="37" value="" style="sketch=0;html=1;dashed=0;whitespace=wrap;fillColor=#2875E2;strokeColor=#ffffff;points=[[0.005,0.63,0],[0.1,0.2,0],[0.9,0.2,0],[0.5,0,0],[0.995,0.63,0],[0.72,0.99,0],[0.5,1,0],[0.28,0.99,0]];verticalLabelPosition=bottom;align=center;verticalAlign=top;shape=mxgraph.kubernetes.icon;prIcon=k_proxy;shadow=1;" parent="26" vertex="1">
                    <mxGeometry x="670" y="30" width="50" height="48" as="geometry"/>
                </mxCell>
                <mxCell id="38" value="" style="aspect=fixed;html=1;points=[];align=center;image;fontSize=12;image=img/lib/azure2/networking/Network_Interfaces.svg;shadow=1;" parent="1" vertex="1">
                    <mxGeometry x="606.09" y="1160" width="45.33" height="40" as="geometry"/>
                </mxCell>
                <mxCell id="39" value="" style="aspect=fixed;html=1;points=[];align=center;image;fontSize=12;image=img/lib/azure2/networking/Network_Interfaces.svg;shadow=1;" parent="1" vertex="1">
                    <mxGeometry x="860" y="1180" width="45.33" height="40" as="geometry"/>
                </mxCell>
                <mxCell id="44" style="edgeStyle=none;html=1;" parent="1" source="43" target="12" edge="1">
                    <mxGeometry relative="1" as="geometry"/>
                </mxCell>
                <mxCell id="43" value="" style="image;html=1;image=img/lib/clip_art/computers/Laptop_128x128.png;shadow=1;" parent="1" vertex="1">
                    <mxGeometry x="420" y="1270" width="80" height="80" as="geometry"/>
                </mxCell>
                <mxCell id="19" value="" style="shape=mxgraph.mockup.containers.marginRect;rectMarginTop=10;strokeColor=#666666;strokeWidth=1;dashed=0;rounded=1;arcSize=5;recursiveResize=0;shadow=1;" parent="1" vertex="1">
                    <mxGeometry x="547" y="600" width="300" height="430" as="geometry"/>
                </mxCell>
                <mxCell id="20" value="Node 2" style="shape=rect;strokeColor=none;fillColor=#008cff;strokeWidth=1;dashed=0;rounded=1;arcSize=20;fontColor=#ffffff;fontSize=17;spacing=2;spacingTop=-2;align=left;autosize=1;spacingLeft=4;resizeWidth=0;resizeHeight=0;perimeter=none;shadow=1;" parent="19" vertex="1">
                    <mxGeometry x="5" width="80" height="30" as="geometry"/>
                </mxCell>
                <mxCell id="48" value="" style="aspect=fixed;html=1;points=[];align=center;image;fontSize=12;image=img/lib/azure2/other/API_Proxy.svg;" vertex="1" parent="1">
                    <mxGeometry x="-180" y="1017" width="68" height="38" as="geometry"/>
                </mxCell>
                <mxCell id="50" value="" style="shape=image;verticalLabelPosition=bottom;labelBackgroundColor=default;verticalAlign=top;aspect=fixed;imageAspect=0;image=data:image/png,iVBORw0KGgoAAAANSUhEUgAAAV4AAABnCAYAAABIKSrLAAAACXBIWXMAACtsAAArbAGluTlJAAAAGXRFWHRTb2Z0d2FyZQB3d3cuaW5rc2NhcGUub3Jnm+48GgAAIABJREFUeJztnXl4G9W1wH93JC+yszr7TkIIpIEQsK2xE9qGveyEkpatpQuF9kHLXkqBvtBCylYKfbyUtlBKaaE0hJ2UwisYSGJLiiAEEgJkTxyy77ZjS5r7/hhLmZEsyZJGXuL7+z5/ie4d3TPazpw59yyCLsr4M8YXle0s+xgY78ByTZFw5KhgMLjegbUUCoUiJ7TOPoFklO0ouxFnlC6Ax1Xg+rVDaykUCkVOiM4+gbbQdX2IRH4G9HFwWYnkq36//z0H11QoFIqM6ZIWr0Teh7NKF8yLzMN00desUCh6Dl3O4q2orvBqhlaLRUFOOfwA3z51T8Zrvbu0hBcX9bYPSq7w+/2P53qeCoVCkS1dTfEKr+59FzghOqAJyZ9v2sy4YS0ZL9YcElx2zwi27HJZh7dGwpEJwWAwc02uUCgUDtClbrsr9cpLsShdgBnT9meldAGKCiRXnrkrfniw5tZuz+4MFQqFIne6jOItLy8vEULcbR3rU2Lw3dN357TuKcc3MHncAduYQPykoqLiyJwWVigUiizpMorX7XbfimS0deyKM3fTp9TIaV0h4CczdqHZnSqFmkv7TU4LKxQKRZa40h+SfyorK0ch+DtQEB0bOzTET7+xM15hZsWAPhG27HbzeX2hdXjCyJEjA/X19Z/nLkHRzRgIHAkMa+OvFEjwTykUTtIlLF7hEr8BSqxjPz5/Fy5NOibjqrN2U1pst54l8uHxZ4wvckyIorvwDeD9JH9zOvG8FD2ETle8FVUV05BcaB2bfmwjFROaHJXTr1eEy0/dGz88vmxX2dWOClIoFIo0dLbi1TSpPYQlrK3QLfnROfm50/v6l/cwenDYPiiZVVlZOTQvAhUKhaINOlXx6rp+BVBhHbvkpL0MKwsneUZuFLjh6nN3xg/3FkL8Ki8CFQqFog3cnSV42rRpvUPh0J3WsYF9w1x8Yn7zGqq/1ETVxCbqPvEcHBR8r7Ky8o+BQCCQV+GKTDkB+FKSuQDwQQeeS3s4njhDwsLHwKIOPBdFF6bTFG84HP5vwHaL/6Ozd+Mpcm5DLRnXzthF8DMPoUhsSBNCPIT5Q8//CSjay+XAFUnm7qTrKd6zMc+rLX6PUryKVtqleCsqKo52uVw57/6HXeHdwUXBVa0PQ/HzWgc6PhKi1ASxkIdp06YND4fDw5yQ4/P53kcp82wpTDHX3aJRStIfougppFW8VVVVxxvSCEhkzmrRFXHtq6ysnBAIBDZ7PJ67G5oavi0Qw6Pzc17pz9RJTXgKc0uaSMfDL/SnJWIbiiC5BpDTp093Nx5o/DdwtBOyvF7vd/x+/5NOrNUDKUgxl0opd0U86Q9R9BTSKVNhSMPJUoqxjayampr9QopbrZPbdrv4+/85XQ3SzsLlHrt/F5DIR/1+/4cATU1N1yCdUboACO7VdT2/L+rQJZVh0N0Ub3ez0BV5JKVCrayqvIS4ojU5Y25kVQL4/f6nAJ91+pmavmzYlsrQyZ5QGOa81D9+eKcRNmYBVFdXl0mk0wV0hgC3pj1K0RapwlvyE/qSP7rb+SrySFLFW11d7RGI2fmQ2bqRJQApEFfDQf9qKAxzXu6XB7HwjzaUuhTy9mAwuB0gEoncBQxwWq5E3uD1eic4vW4PoDnFXHdTZN3tfBV5JOmtXNgI/0wgbEVrZlwylqknDslYyGvz1lPz+qaDA4KpXq/3Ir/f/4zP5wt6q7xPIbk8Or1wWQl1n3iomuhc9tr2PW7+lujGWFZaXPongOrq6mMiRuRK6+Sk3mHumrQvY1mrG1zc9FEf645aIYL7gPMzXqxnoxSv4pCkTcVbWVk5SiBuso4NGeFh+hnDcbkyr1pz9swxvF+3nb27LXV1BfdNnjz55aVLlzYIKW6RyBlY2v08/EJ/jp/QRKFDZXzmvNKPpha7ga8J7ZqampowQNgI/0YgXAfn4IeHN9DLnflG3+S+BqcMbubNrTa33nmV1ZVfC9QGXs/uFfRI3iZ5sf66jjyRdhIE/phkriuer6KTaFPxCiEeIC785cLLxmWldAGKPS7OunA0zzy20jo8sshT9FPgv30+3xZvlXc2knuik/XbC5j3bh8uPjGhvkLGfLSmiP98UGobE4hn6+rqagAqqyovEFKcap0/fUgzR/XK3kj5wdhGFu4opDFy8D0ThniwvLz8P8FgMCGUTtEmz7b+dRdea/1TKFKS4OOtqKqYhmCmdWxyeRkTj03YlMqI6ulDGD2ul21MIG6uqqo6DKBhX8Nvgc+s80++0Zcde3PL8TCk4LfzypD2SNoml8t1C8CkSZMKhRT3WCc9Lsnloxtzktu/wODiUQmukolagfajnBZWKBTdnnjFm1C0xu3WmHHp2NwFaYILLx+HsBvNHgPjPoBly5a1aEK72TrZ2Kzx+1f75iT3pUWlrNxkjzwSiHsWLVq0DqBXr143AkdY5781uokBDsQSf314EyM89oBhIcWs8vLygTkvrlAoui02xVtZVfl94nLNTzpzBIOGOhP7Pe6IPhxfFadzJDOrqqqmA9TV1b2MxOYDfTPYi6WrswuB3Nuo8efXEyz1DeFw+AEAXdeHSOTPrJPDiw3OG+7Mpl6BBlcelmA593cVuFRRHoWiBxO7j28tWvNL62TvvgWcdt5IRwXOuHQsH7+/i+bmg5agIY1Hpk+fPqWmpiYshLhRIk+mNWtJSnjo+TJmTNufsSzfp8XsabAb9QJxQzAYbASQQt6LxBbq8F/jGih0sPfy1AEtVPQPsXiXJYxNcqWu64/5fL6gc5IUCkV3IaZ42ypaM+OSsRR7nO0O1K+siJPPHsH8eeutw5MaGxuvAB71+XzLK/XKOQJxbXRy5aZC7p9b5oT4t3w+33MQS4X+lnXy+H4h9LLsOhqn4kfjGrjq/X6ED/qZNYl8CPgKqo6DQtHj0ADKp5YfLqW8xjoxamwvKqYNyovQU88ZSdmgOPeB4G6v1zsAINQcmoVkm8NiIwJxfVRafCq0S5gKMh+M9kQ4Z9iB+OETvF7vhW0dr1AoDm00AJfheghxMJdcCPjmdw9Hc6LTZBsUFGqcf3HChl2ZEOIXAEuWLNkN3OGoUMkcn8+3FNpOhZ4x7ACHlUTafKoTfHt0E30L4oxbwW/Ky8tV1SqFoofhqqysPFkIcZd1UP/KYL562vBkz3GEYSNL+Hz5HnZutyUnlY8ePfrFjRs3bp06deqSPXv3TGsd35XLn0RudLvc39m4cWNTdXW1RyJfAGLhEv3ckjsm7qMwj2UpCzWJxy3x7bRFWPR1aa6W+vr6d/In2XFcwHDgMGAiZkTIIMxU6wiQWxxex1AJnJVkbhXwtw48F0XmeDBroAxq/X8TlrIDeaIQM8FrMKaLNqcdeLfQxIO2AbfGud88LJc1282MS8dy3+1LbOLDRvgu4Ly5c+dGgFOclmkYxnWALRX60jGN9HLn39V61tBmXqwvZn3TQb+5RN5SXl4+J1ovogsyFLPA9ylAOTCG1OUa9wMfYXbs/T/gTcAJH04fTKW/h/z/yLoqxZiKZi/mRa474sH8HDPZLT8aM93+K8AkzAu/FQmsBRYCbwFzM1y/LcYCFwE6ZqTXiLj5ZmADZnH7BcBLwNb2Lq4JRI11IBw2WL8613NuH6s/S8xKE9J+Pk4jpawhbkNreY5JGu1lR7Nga0vCZuXyYDCY0AiuC3ACZtbYeuBPwDeB8aRWugC9gGrgauAFYAfwFMlb4qTiFkwFIzEV7k7L439msV6++TbmubX192qWa54J7G5downzPQi3Pt6S4/km42SSv45sO9E+1fr8RmCf5f+pvk/TgXcxL+S/Ak4lUemCmXcwFrgM+DNQD/ya7IrPnwa8AawEZgPnkah0wSzzOR7zM/8jphJ+FpjSHiHugoKCWS2hlkuAWIDtvKdWM3FyP9wF+bv33r83FB/ZAPBJJBJ5JPpA1/VbDYzDHBDXWOopvbmmpibs9/trvV7v0wgujU6+va2Is4c2M7lvfjN556wu4YDdTjEMzbBVZ+sCHA3ci/mDd4IizB/EZZhtfB7P4LkldH4nbKfIdsOkCItbLI7OaN2V7efRlhL0YCqq+F6HZcCjYM+gzYA+wM8wjYWv074WUcOBh3KQWQh8A7gA+C3mHlXSIk/uBQsW7PJ6vXcg+H10cPvWA/zntXpOP39UlueQnpefXUdjg70WgtTkDdE6BrqunyiRs0XW31c7jQcaVwP/A+ByuW6JGJHzMK0zAP5nVSmPHrebLMtRpGXJ7gIW7EhIBPnL4trF/vxIzBgXcBPwS/JXZHxintbtDuTpm9XtqcaueI8DXgacSCAYi2kxX4Dp8krGScBzQG51EUzcwM3AscAMkux5aABjxoz5E/ChdeL1FzfEb3w5xoa1DdS9k3CX9FK0ctfMmTNdrXGuziG5M5qqW1tbWy+FvNc6vbbRxWub89MkICJNazeOfZFwxOmi69nSD/OLeQ/dr7NDd+FQsdyzJdmFp9ry/68CNTijdKP0Ap7H3J9oi8uBf+GM0rVyGvAiST53DWDu3LkRgbgGi+8z1GLw0tNrHT4XMxPtuSdXYRg2N2uLQMTqNKzdsPZKYLLDovu73e5YB9hd/Xfdj+nHifHEuhL2hJw3TF7a5GFNo/2uUCLvDAaDXzguLHOGYloFJ3b2iRzi9HSLN9nrn9r6r45Z2S0fbbJ6YSrBeOV6E/AE+TM2TgV+0tZETBv7fL4FCJ6zTgbrtvH5J3scPRP/e1tZ9WncpprgAZ/P9znAlClT+glD2Fpk95GSaaFwxn8jDLvrVCKv0nV9MsDKf61slkLeYp3fH9b4y3pnw2p3hzSe2pBQ62LlrrJdj7R1fAfTG5gPHNPO4zcCT2JaCVMwNx2KMP13I1rXuQTTx7WIxJ33npylpxRv24zGvNV/FShNcsw6TBfYuZhRNcWYfuBBmBuBs4BP0sgfienDjfIN4L4U51UP3I25uTYWcxMwKvOkVpkfp5EJ5gbd6PhBmxkmI/JGoYmzsDjC//nEKm695zhHkimaD0R4+dm18cP1JcUlv44+KCgqmIX54mJ8t6mZk5sz3/ja4NL4SZ9S668/6sI4CSBQF3jeq3vfwLwtAGD+5mLOGNLMhBxq8Vp5fK2H/WH7e2cI4ycr/7UyP36c9iOAZzB9aul4D9MN8TrJNwKbgE2YX8ZnWsfKgNOBc1r/7cmKV7kakjOftpuBLsPcpHqZxIt49PfzVuvfr4AfAQ+S3IL9FvAI5n7GX5Kc00rgp8ArJHYNiUZ0vN3690vg+8DvSN5F2gPcAFxnHbR9GQKBwAaJfMA69sXGRt57c3OSNTNj/rz17Nllr4UghbylpqZmP0B5dflRAvFf1vnDIxFOzELpAoyKGHytOaH2wom6rn89+qA1jTj2BhsS5qwqdURDfL7fzRtbi+2DklcW1y3+lwPL58qVJE8iiNIAfA/T9zafzKMvdmIq4UswA88fTH34IY2yeJMTr3QNzLumCsyQxPbELBvA/2JuaCU7XmAqyRdIVJSyde7Y1vn2WF4SeAwzzj2VkvoecVEdCVdht+a+B9O0j/Hqc+vYty+3UKttm5t4998JLs3aQF3g6Zhsw/0glrg+AfygsTknU+Gyphb6xFVBl8jfRlN1fT7fcon8g3V+2T43b23LbaNNYkZK2F3ZtGD6lTqb4cADaY7Zgqlwn8AZSzUCOHMF754oxds+moELMa3EhAIn7WA+cH+K+SriioFhKtnLgWvJLvMyanEnozdxRk6CTqutrW0SCFuN2qaGMK/9c138oRnx3JNrCIVtBpMhDXktrT9qr9d7lkSeYT1gekuIL4VzS9AplZJLmhLu6kdpBdoN0QdFBUV3ALbMsT+uKbG17cmUN7YU88k++4aaQDzo9/s/S/KUjuR2LKF0bdCE6dtSZSudI1v7oSe5Z5owM9ReyHGd2ZjZfe3hAGa42VM5ynyAOB0Sx2nWB21+GXw+3z8wd7pjLHp7C+tWZd5xF2Dp4h0s+9CenCUQjwcCgQBAeXl5AYLfWOeLpeTyJmdKNH6tJcxhkYROED8vLy8fDbBgwYJdSGwbejtbNJ5J3BRrF00RwRPrEp67BTObprMZhemXSsWPAV8HnEtPojtZvPk413RrGsDFgBPNYPcB89pxnIGZFvyKAzKbOLi30Ra69UHSzBdNaNcb0gjQqpwNQ/LXRz9j/JGZt+JZtiQhy3C3y+WKxbC6Clw/RnKk9YBvHAhRZjiT0KVJyQ8aW7itt00Zelwu12zMjCpKSkoebTzQeBWSo6MHzNvkYW9YI1Ojo77RzY64jsZIfurz+3Lv3Jk73yV1+Mw7mGmXCmfp6Ztr6V7/nZj1DpziHczveirucFjmu5hGS1scgXnxkZBC8dbV1b2v6/rjEvmD6NiW+ia21OfeFkcgZi1atGgrwHFfPm4QLfYSkEMNg/MSN8Vy4phwmKktIRYVWlLDBZd4vd4/+P3+92pqasJer/daBP+JTocMmO9MUkWt3+/P9VbGCQTwnRTzEvOL05NubzuK7mTxdjQLSO0jzYZ0Ff/m4/wdaG2KuWLMCn7bIc1VqKWw5TbMAh1O8kk4HJ4TfeBucd+FmTkV43uNzRRI53/7329qpsi+rABiBdH9fv9bAvG8w2INQzOuo2sosymYMYnJeB2zIInCeXq64k31+mtw/vexFnMzOxmv5kFmPan1ZSxOOaXi/eC9D7Yh+WWqYzJGcn20HoPX6z1WIGz+xsnhCFUhZ2Jo4xlkSM4/EPdZCI7Tdf07sdOT8iay201tG8ETXagew+lp5v+QZl6RPT3d1ZBK8earxOWOFHP5KkyVSvHGXHxpqxtFIpFHNLd2jBAi1S54e/nc7/P/O/pACvmQQMTqJJq+2PzmFVzY3MxbRQVssySESOSvy8vL5wWDwT1+v39NZVXlDQKRewqtgRSI23JexzlOSjHXROpCIorcOFQs3q5w59ZedgHDOlhmKsUbC+pPq3hbrdPvOXFGVnRdv1Aip1vHzmwOMyaS3/rORRK+1XSAB0ttG22DNbd2O2ZVIQJ1gd/DwWpthxDHpphbQPfoHtFdOVQUb7Z0hsWf3zqvbZPKvXHQyOyAE2kTA+Oi+LHpIec7/LbF1FCEYhnv7BUXcWj/OIZiZo8lY1lHnUgPRbkaFDE678tg8N/EpeX9vTg/ZRnjeb6ogAMi7nsgmUX3uo3KlHFp5rtCYsehTLaK51D5TirFayGtq0HX9ZESuYLklYMyYU2Jp+RLNTU1BwKBwDJvlfcxJD+MTn5Q4GZxgZuKPG2uAezQBM977ApeIt8P+ANPRB97de/rpN+Iahea0E6sq6urcWKtHIlPk4wnX21kFCbK4lXESPtlMDDuxxmlCzC28UDjjdEHLuG6jbidxz95islDSdwYj3uK40MWpJDiOlp3OXVdPw+HlC6AIY2HZs6cmdBorRMYmGbe2fqfiniU4lHESKl4vV5vtUB801GJkliqbm1t7U4ppC1c7QuX4KWi/NQlXu52sbAwwcj/m9/vfw9g0qRJhRJ5n8Nij123bt0VDq+ZDene1OzywfPLoaSslMWriJHqy6Ch8TDOv2Elbrf77uiD0uLSORJpC9p/trjIFu7lBIYQPFpSFO8w21/gLogVBCrtXXo9MMFRwQCC2V6vd4Dj62ZGuh9+V7DKD2UOFV+tIjXt+pyT+nh1Xb9cSllpHTtCdzGuIvML97K3I2xcfjBeWSIv9Xq9c/x+f21rqu511lTdZgF/9RRxY4NzeQzzi9ysdcXpFsFdCxcu3ASg6/oQKeXPrdOegj4cM/w0MmVv01ZWbLXVGCqTQt5BXDHkDiZdnJ7qtabIJz3lwtMui7FNxTtt2rTeoXDobuuYp5fAO8NNUUnmlmifARrPz24mcnDPTEghHwEqAcPv97/l1b0vYZYiBOCdwgJObwlxdCj3uN59QvBMfMSEZNXOsp0PHXwoZxPX72ni0OkMLB2TsbyBpWPYtn8NOxo3xMYE4uqKiorHFi9e3J52IfkgnQ83H72uFAfpKYonGT399dto03wNRUK3E5fxcfzZ2SldgN4DBUeflFCb9nhd1y+PPpaGTCh8/IeSYkdyCf/qKWJffPgYXBdtv1NRXXEcccVjBpSOYmjvI7KWOXHodOIufm7NrTnbOTkzdqaZz/wKo8iEnq548pWi2y1JULyVlZXjMLjWOjZgpMaE6txcgMee5sYTZ1NJ5D3l5eV9AQKBwGqBsCmmdZrGv4sKyIXVbhdvFiZ0+H3T7/e/Gn2sGdpD2N4LwZeGpMquTU+f4sGM6h/XQ1JyclVV1bk5LZw9a9PMj++Ik+jBZKt4DxWFfai8DkdIULxCEw8i7D2QvBe4STQYM8NdCN7zEpToYJfbFatl4PF47pbITdYDnvIUsTdL4RL4o6cIw/78kIzIWM1Mr9d7MfAV6wFj+h9L7+J00VfpOWrwlylw2XuuGYbx4PgzxndMpoid1aS2Ok7oqBPpoWSreFJ9Zvnyy6dqtZ2P19HjsCler9d7EhY/K8C4410MG+9MJMy4ChdDxiWsda3X650AUFNTs19Icat1skEInvZkp6feLixgudtuqUvkw4sXL/4UoLq62oOw1+R0a0UcMWhqVvLiKXAVc8TAavug4PCyXWWdscl2gNQtsKdgdgVW5IdsFdb+FHPFKeZyoX+KuWzreSiL10LsHnzmzJmutevXPiQsfklXAVSelza5rd0IAVVfL+DlB5qxlEooxOxXdC6A3+9/yqt7f4DFAptfVMD8HF0OrWw1wsZd0QcRGbmFON/mkYOnUejOruVPW4wpm8KGPR+x74ClHZPktvLy8r8Gg8GE7p95phaYlGTOhdl65X877nR6FPlQvG5MJZnQ4iVHUl2AU51PKpTFayFmfq5fv/6HAmFzSk4+xU1pf2fjaQeMEoz3JoR1nVNRVRFtdCkFBzPJnEQgfhYMBveAmQqNtHf87VU0gFH9UxXwykKm0Jg4ZHr8cG+32z3bUUHt4//SzF+JCnTvaqTrzHx4HmSm2mjNtjGCsngtaAAnnHBCf4mcZZ0o7Sc4+qT8xNRXnOum0GP/fbuk68Hy8vICAJ/PFxSIvzosNujz+Z6MPmjNULOlQk8cMh1NOJ9gNLB0DEN62X8fEnl5RXWF13FhqXmN1EXeJwPf6KBz6Wlkq3jqSd0x11lLwURPMZdtFbtUhlRPudjHXqcG0NLScidxufzeGW4KivLzfnh6CyafmuB7Pcrtdl9tGfoZztUPkAJxDa0fvtfrrcbsLhpjaJ8jGNTrMIfEJXLUsOlowvaahWZo+cgMTMV+zJYnqbiX1JsriuzIJapheYr5r2W5bjJGAqkMgiVZrpvq9fcUazj2Ot1VVVUTDWn80Do7ZJzGYVPym0E6abqbz+si7Nl68D2XyDsrKyv/EQgENvt8vi26rn/FEEaqGrLtQhiiwef31bU+NFOhpeXqI1wcOfjLuYpJSWlBPw4bcDyrtwesw1W6rl/m8/k6shHmo8CFKebHAI8Bl9JzfhAdQS7v5TtAVZK5czArz6VzSbSXq0mdXh5IMZcK5eO14DYM40EEsZ0rIUB3IHwsHS43eM8v4M0/2oqf90HjTuAqAJ/Pt9Rpubqufyc+FXrsgHJKC1Nt5DrD+IFV1O9ZTnOoITYmkffpuv6Sz9dhrd//A9SR/IcM5ibbRzjfhbUnk4vinQ/ckmSuCLgduCaH9aOMBnsMfxwbAF+Wa6d6/T3O1eCmjfYYeXBztols47MQUsSarlVXVx8TluEhucoRhmjw+/21AFLKA4kfcwd+7okvOdTU1JTffkeJ3Aq8ReoXPhuzHfUt5K8ZYU8iF8W7ALNQfbICTj8CXiK3nnmFwJ+BVCE9T5K95aosXqurIeKOXO8Ku06LJk1ICXXPhTnz2sK8Wr2RMAReTCh4vhO4E2Dq1KmDw5HwewLRN2dhAllRXVG1uHax3+/3P+PVvT8EYr6FNTsWM7LfpLxbvSu319EcbrAPSm5cunRpQ9vPyBs1wBOk76V3I2Z8709I7WdsDxqmlR2gc3phdTa5KF4D+C3J+wBqwDzgbODdJMekwo35fTg5xTGNwO+yWDuKcltZ0IKLgqtayz/G2LLaYM37+TVyPn4rbPPvAiD5ud/v3wEQNsKzgdyVrol1I0samnEtliuwISOs2PyOQ6LaprFlN+t2fBA/vMDv9z+XV8HJuR5Y0Y7jTsZ0O/wVM7Y6E+d/Cebmz6OYu/MLgc7I2jsUeBxIVWCpN2a44O2ktlrjORozvvuSNMfdD2zLYN14lOK1oAEUuAruAmzB/P4Xw4Tz1HuycY/kwzcSrN0lY8aMeQxai9ZIvuuw2Cpd1y8DWFy7+AMET1gnt+xfxbb9axwWeZDlm98iIm2vOYLkGjrvC7kXOJ/2/Zg04FvAe5ibOE9juisuBs7AVK4zMeOAb8FU0h+3yvgXps8+XeuhQ51cP+cQ8EPi+hTGUQD8ClgF3Ad8FVMhW3Fh+nIvwYxweR+oSCP7Y3L393eGq6GrKXt7ONnChQv3SWGvRdu4R7Lk3/m5I/S9EEpQ6lKT182dOzcCbRWtcYbWjaw+AG7N/XPiwtWWJSpHR9iybxVb45S6RD7q9/s/dFxYZnwKnAJszeA5AzEV7mxMBTwfU7n+E/gDcA+mkp6EKq5uxQklsBDT/ZOOYcDNmC6lvZjdRTYB64EmYB3wd+AsIF1K6E7gAqA5zXHp6Awl2NU27Q76eKP/CdQFnmz1fcaCp5e9HeEI3U3fwc6d/5bVBms/SLj4PROoDbwDoOv6RRJpK1pTNm4qw4/LPK5/9zo/Gxc/bR0aKoW8Bbht0aJFWyv1yl8JxAPRyag7YNzAyoS1siUiw6zYkuDG2GmEjVmOCcmNpZif+cvAMWmOVWSPU4rnd5h3D7emO9BCr9a/TNmJ6Tf+PIvnxqM21yxYrcpoqm7sCxIJg/9F56xeKaF2bshapwGgye1y3wpm0RoosJruAAAHP0lEQVSJvMc66Sr0MHjSmVnJ6zu6gpL+cdmPkpt0XT8CwAgbv8O0+mK0uQGWA2t2LKahxZ5KL4W8PRgMbk/ylM5gLabyfRAVwZAvnLT4fo654ZnPTcpPMDegax1ar6vd9ncqttt5n89XB/zNOrbhY4MNy5y5WK1YEGFnvf39l0LOXrRo0TqASCTyU+LyxAcf9TXchdlcrM06CUOnXEBceEahFPJegGAwGBKIH1snw0YLK7ZkszGcyIHQPlZv98cPLystLv2TIwKcpYmDUQyvkZ8fygp6ZkQDOP9+/g9mB5eEL1iONAO/AcrJPZLFirJ4LSTW40XcTFxuuG9emEg4t+9NcyN88K8E/+ma0uLSBwCqq6tHILjZOlnUewhlh+dWJrakbAz9RpXbByUzvF7v6QA+n+9NTD9ljPo9n7CzYWNOcgFWbHmXsGHXM5rQrqmpqXHekewcH2PeXk4EHgZ25LjeHuBZzAyrSWTmKzyUfqz5uJB9CFRjvrf/Ibf3azdmZbojgZswL8RO0hmfZWfcvbUrUaRN562u67e29iCLUXGum8mnZF8ictE/Q6xYEPc+SC7w+/0vAHirvH9H2kNaxpxwFb2HTMxaZpTwgb189sZsjJCtPszySDgyJRgMhqqrq8dHIpGPrQXg+xYPZuq4yxBZ+ud3NdZTu/ZZrJ+DQDzr8/kuSv6sLokL07L6GnAc8CVgLG1vnO3C3MD5FDNe1495q9rVrFyN5I1eDVJHDnRlhmBeNL+KWTxnAm3X7DUwN9tWYX5O72Iq7mxr7baHka3nZ+UApoLfTupCQN2J4SSvk1xPq+HRplaZNGlSYWmv0o+BWNMxdyFceEcRJX0zV0Q7Nhq8fH9LvG/3Lb/PfzK0Fq0RLLSeT59hRzN66hUZy0rGthVvsmXZa/ZByY/9fv8jALquPyCRth3jY4adyqj+kzOWJZEsXP0Uew/YIrWa3C73xKhb5RCgH2aoUgGmtdQMdHQiiCI9ZZifVZR9mHcheQoWVbSHpFrU6/Wej+AF69jIiS7GHJt5lNdntRG2rbPdaYSlIacEAoFlgKbreq1ExioiCc3N+FN+SlHvnOvjxJBGmM/fvJeW/TZluCsSjkwIBoPby8vL+7rcrk+xXJUL3R6OHJS5q2PvgW2s2xVXxEkyy+/335nd2SsUikOJlOarV/e+DpzutFCJfCjgC1wPoOv6dyXyz9b5QRNOZsgx5zgtlr31S1lfZxOFQMzx+XxXA3i93u8jeMxxwYL1kVBkYjAYzOetnEKh6CakNF81oV2P8/65HW7N/SuAadOm9ZbIu62T7qLeDDzqFIdFmvQZMZleQ46yjUnkVbquTwbw+/1PCITTu8RI5PVK6SoUiigpFW9dXd0nApGsMEdWSCFvra2t3QkQCoVuw8yyiTHkmLNxFTjX8yyeYZPPR2i2fSGXREbbyhtSSlssswO8FagLPO/gegqFopuTdqfshBNO6N8can5HIErTHZsOiVx12OjDzpg7d26ksrJynNDEMiw7gJ7+oxh34vWIPNel/GLJPHases82JhAX+ny+eQDeKu/vkZyWsyCJdLlcM2praz/KeS2FQnHI0Gm5zG2Fj4396jWUDhyfd9mRlkY+nT8LI2LZ2JWs8vv9R6AybBQKRZ7poJLniUhkTfxY4/bVHSL7wO56u9IF0KhBKV2FQtEBdJriDdQFHkfY+zdtXfEmocZdyZ7iCFIabPowweW6NxKK3JFXwQqFQtFKpylewJDCvpElIyE2f/RKXoXuXPkezXu/sA9KZgWDwS/afoZCoVA4S2cqXgK1gUUS+ax1bM/G92nYtjIv8iLN+9m64vX44U8ikcgjeRGoUCgUbdCpitc8Ae1m4lJNv1jyHFI6X1Nj88evEGmx1/6QmrwhGAx2tVoCCoXiEKbTOwTU19fvHTlypBs4MToWbt6Pu6gXJWVjUjwzM5p2beCLJfOI2z97KVAXuMsxIQqFQtEOOt3iBdA07X7MYtwxti6bT7hlvzMCpGzLim5pLYGpUCgUHUqXULy1tbVN8UowEmpi67L5yZ6SEbvXB2jcGVcUTPCAz+dzoqWJQqFQZESXULwAPp/vufjY3l1r6mjauT6ndY1wM1uWvRo/XF9SXJJr11SFQqHIii6jeAEwuAZLEWopDb5Y+jzxhXwzYevy1wk12WssSyFvqampcciPoVAoFJnR6ZtrVjZt2rRtxIgRwxDE2vyGmnZT2GsQxX2HZ7xe874t1AefjlfctdGSlAqFQtEZZN/LJ09EIpFfuNyui4D+0bHNS1+iYfuqjNdq2rkOadjaDRmtzS1VarBCoeg0Oq1ITiq8Vd4fI/md0+sKxJ98Pt+VTq+rUCgUmdC1fLytjBk1Zo5EOl1Kca9hGL9weE2FQqHImC6peOfOnRsRUlzn5JoC8YtAILDZyTUVCoUiG7qkqyGKt8p7m5RytANLNRlh42aVGqxQKBQKhUKhUCgUCkW++X9YWW/596ktuwAAAABJRU5ErkJggg==;" vertex="1" parent="1">
                    <mxGeometry width="350" height="103" as="geometry"/>
                </mxCell>
                <mxCell id="45" value="Container" style="swimlane;shadow=1;" parent="1" vertex="1">
                    <mxGeometry x="-300" y="630" width="200" height="90" as="geometry"/>
                </mxCell>
                <mxCell id="56" value="" style="sketch=0;html=1;dashed=0;whitespace=wrap;fillColor=#2875E2;strokeColor=#ffffff;points=[[0.005,0.63,0],[0.1,0.2,0],[0.9,0.2,0],[0.5,0,0],[0.995,0.63,0],[0.72,0.99,0],[0.5,1,0],[0.28,0.99,0]];verticalLabelPosition=bottom;align=center;verticalAlign=top;shape=mxgraph.kubernetes.icon;prIcon=k_proxy" vertex="1" parent="1">
                    <mxGeometry x="-320" y="1010" width="50" height="48" as="geometry"/>
                </mxCell>
                <mxCell id="59" value="" style="shape=image;verticalLabelPosition=bottom;labelBackgroundColor=default;verticalAlign=top;aspect=fixed;imageAspect=0;image=data:image/png,iVBORw0KGgoAAAANSUhEUgAAAV4AAABnCAYAAABIKSrLAAAACXBIWXMAACtsAAArbAGluTlJAAAAGXRFWHRTb2Z0d2FyZQB3d3cuaW5rc2NhcGUub3Jnm+48GgAAIABJREFUeJztnXl4G9W1wH93JC+yszr7TkIIpIEQsK2xE9qGveyEkpatpQuF9kHLXkqBvtBCylYKfbyUtlBKaaE0hJ2UwisYSGJLiiAEEgJkTxyy77ZjS5r7/hhLmZEsyZJGXuL7+z5/ie4d3TPazpw59yyCLsr4M8YXle0s+xgY78ByTZFw5KhgMLjegbUUCoUiJ7TOPoFklO0ouxFnlC6Ax1Xg+rVDaykUCkVOiM4+gbbQdX2IRH4G9HFwWYnkq36//z0H11QoFIqM6ZIWr0Teh7NKF8yLzMN00desUCh6Dl3O4q2orvBqhlaLRUFOOfwA3z51T8Zrvbu0hBcX9bYPSq7w+/2P53qeCoVCkS1dTfEKr+59FzghOqAJyZ9v2sy4YS0ZL9YcElx2zwi27HJZh7dGwpEJwWAwc02uUCgUDtClbrsr9cpLsShdgBnT9meldAGKCiRXnrkrfniw5tZuz+4MFQqFIne6jOItLy8vEULcbR3rU2Lw3dN357TuKcc3MHncAduYQPykoqLiyJwWVigUiizpMorX7XbfimS0deyKM3fTp9TIaV0h4CczdqHZnSqFmkv7TU4LKxQKRZa40h+SfyorK0ch+DtQEB0bOzTET7+xM15hZsWAPhG27HbzeX2hdXjCyJEjA/X19Z/nLkHRzRgIHAkMa+OvFEjwTykUTtIlLF7hEr8BSqxjPz5/Fy5NOibjqrN2U1pst54l8uHxZ4wvckyIorvwDeD9JH9zOvG8FD2ETle8FVUV05BcaB2bfmwjFROaHJXTr1eEy0/dGz88vmxX2dWOClIoFIo0dLbi1TSpPYQlrK3QLfnROfm50/v6l/cwenDYPiiZVVlZOTQvAhUKhaINOlXx6rp+BVBhHbvkpL0MKwsneUZuFLjh6nN3xg/3FkL8Ki8CFQqFog3cnSV42rRpvUPh0J3WsYF9w1x8Yn7zGqq/1ETVxCbqPvEcHBR8r7Ky8o+BQCCQV+GKTDkB+FKSuQDwQQeeS3s4njhDwsLHwKIOPBdFF6bTFG84HP5vwHaL/6Ozd+Mpcm5DLRnXzthF8DMPoUhsSBNCPIT5Q8//CSjay+XAFUnm7qTrKd6zMc+rLX6PUryKVtqleCsqKo52uVw57/6HXeHdwUXBVa0PQ/HzWgc6PhKi1ASxkIdp06YND4fDw5yQ4/P53kcp82wpTDHX3aJRStIfougppFW8VVVVxxvSCEhkzmrRFXHtq6ysnBAIBDZ7PJ67G5oavi0Qw6Pzc17pz9RJTXgKc0uaSMfDL/SnJWIbiiC5BpDTp093Nx5o/DdwtBOyvF7vd/x+/5NOrNUDKUgxl0opd0U86Q9R9BTSKVNhSMPJUoqxjayampr9QopbrZPbdrv4+/85XQ3SzsLlHrt/F5DIR/1+/4cATU1N1yCdUboACO7VdT2/L+rQJZVh0N0Ub3ez0BV5JKVCrayqvIS4ojU5Y25kVQL4/f6nAJ91+pmavmzYlsrQyZ5QGOa81D9+eKcRNmYBVFdXl0mk0wV0hgC3pj1K0RapwlvyE/qSP7rb+SrySFLFW11d7RGI2fmQ2bqRJQApEFfDQf9qKAxzXu6XB7HwjzaUuhTy9mAwuB0gEoncBQxwWq5E3uD1eic4vW4PoDnFXHdTZN3tfBV5JOmtXNgI/0wgbEVrZlwylqknDslYyGvz1lPz+qaDA4KpXq/3Ir/f/4zP5wt6q7xPIbk8Or1wWQl1n3iomuhc9tr2PW7+lujGWFZaXPongOrq6mMiRuRK6+Sk3mHumrQvY1mrG1zc9FEf645aIYL7gPMzXqxnoxSv4pCkTcVbWVk5SiBuso4NGeFh+hnDcbkyr1pz9swxvF+3nb27LXV1BfdNnjz55aVLlzYIKW6RyBlY2v08/EJ/jp/QRKFDZXzmvNKPpha7ga8J7ZqampowQNgI/0YgXAfn4IeHN9DLnflG3+S+BqcMbubNrTa33nmV1ZVfC9QGXs/uFfRI3iZ5sf66jjyRdhIE/phkriuer6KTaFPxCiEeIC785cLLxmWldAGKPS7OunA0zzy20jo8sshT9FPgv30+3xZvlXc2knuik/XbC5j3bh8uPjGhvkLGfLSmiP98UGobE4hn6+rqagAqqyovEFKcap0/fUgzR/XK3kj5wdhGFu4opDFy8D0ThniwvLz8P8FgMCGUTtEmz7b+dRdea/1TKFKS4OOtqKqYhmCmdWxyeRkTj03YlMqI6ulDGD2ul21MIG6uqqo6DKBhX8Nvgc+s80++0Zcde3PL8TCk4LfzypD2SNoml8t1C8CkSZMKhRT3WCc9Lsnloxtzktu/wODiUQmukolagfajnBZWKBTdnnjFm1C0xu3WmHHp2NwFaYILLx+HsBvNHgPjPoBly5a1aEK72TrZ2Kzx+1f75iT3pUWlrNxkjzwSiHsWLVq0DqBXr143AkdY5781uokBDsQSf314EyM89oBhIcWs8vLygTkvrlAoui02xVtZVfl94nLNTzpzBIOGOhP7Pe6IPhxfFadzJDOrqqqmA9TV1b2MxOYDfTPYi6WrswuB3Nuo8efXEyz1DeFw+AEAXdeHSOTPrJPDiw3OG+7Mpl6BBlcelmA593cVuFRRHoWiBxO7j28tWvNL62TvvgWcdt5IRwXOuHQsH7+/i+bmg5agIY1Hpk+fPqWmpiYshLhRIk+mNWtJSnjo+TJmTNufsSzfp8XsabAb9QJxQzAYbASQQt6LxBbq8F/jGih0sPfy1AEtVPQPsXiXJYxNcqWu64/5fL6gc5IUCkV3IaZ42ypaM+OSsRR7nO0O1K+siJPPHsH8eeutw5MaGxuvAB71+XzLK/XKOQJxbXRy5aZC7p9b5oT4t3w+33MQS4X+lnXy+H4h9LLsOhqn4kfjGrjq/X6ED/qZNYl8CPgKqo6DQtHj0ADKp5YfLqW8xjoxamwvKqYNyovQU88ZSdmgOPeB4G6v1zsAINQcmoVkm8NiIwJxfVRafCq0S5gKMh+M9kQ4Z9iB+OETvF7vhW0dr1AoDm00AJfheghxMJdcCPjmdw9Hc6LTZBsUFGqcf3HChl2ZEOIXAEuWLNkN3OGoUMkcn8+3FNpOhZ4x7ACHlUTafKoTfHt0E30L4oxbwW/Ky8tV1SqFoofhqqysPFkIcZd1UP/KYL562vBkz3GEYSNL+Hz5HnZutyUnlY8ePfrFjRs3bp06deqSPXv3TGsd35XLn0RudLvc39m4cWNTdXW1RyJfAGLhEv3ckjsm7qMwj2UpCzWJxy3x7bRFWPR1aa6W+vr6d/In2XFcwHDgMGAiZkTIIMxU6wiQWxxex1AJnJVkbhXwtw48F0XmeDBroAxq/X8TlrIDeaIQM8FrMKaLNqcdeLfQxIO2AbfGud88LJc1282MS8dy3+1LbOLDRvgu4Ly5c+dGgFOclmkYxnWALRX60jGN9HLn39V61tBmXqwvZn3TQb+5RN5SXl4+J1ovogsyFLPA9ylAOTCG1OUa9wMfYXbs/T/gTcAJH04fTKW/h/z/yLoqxZiKZi/mRa474sH8HDPZLT8aM93+K8AkzAu/FQmsBRYCbwFzM1y/LcYCFwE6ZqTXiLj5ZmADZnH7BcBLwNb2Lq4JRI11IBw2WL8613NuH6s/S8xKE9J+Pk4jpawhbkNreY5JGu1lR7Nga0vCZuXyYDCY0AiuC3ACZtbYeuBPwDeB8aRWugC9gGrgauAFYAfwFMlb4qTiFkwFIzEV7k7L439msV6++TbmubX192qWa54J7G5downzPQi3Pt6S4/km42SSv45sO9E+1fr8RmCf5f+pvk/TgXcxL+S/Ak4lUemCmXcwFrgM+DNQD/ya7IrPnwa8AawEZgPnkah0wSzzOR7zM/8jphJ+FpjSHiHugoKCWS2hlkuAWIDtvKdWM3FyP9wF+bv33r83FB/ZAPBJJBJ5JPpA1/VbDYzDHBDXWOopvbmmpibs9/trvV7v0wgujU6+va2Is4c2M7lvfjN556wu4YDdTjEMzbBVZ+sCHA3ci/mDd4IizB/EZZhtfB7P4LkldH4nbKfIdsOkCItbLI7OaN2V7efRlhL0YCqq+F6HZcCjYM+gzYA+wM8wjYWv074WUcOBh3KQWQh8A7gA+C3mHlXSIk/uBQsW7PJ6vXcg+H10cPvWA/zntXpOP39UlueQnpefXUdjg70WgtTkDdE6BrqunyiRs0XW31c7jQcaVwP/A+ByuW6JGJHzMK0zAP5nVSmPHrebLMtRpGXJ7gIW7EhIBPnL4trF/vxIzBgXcBPwS/JXZHxintbtDuTpm9XtqcaueI8DXgacSCAYi2kxX4Dp8krGScBzQG51EUzcwM3AscAMkux5aABjxoz5E/ChdeL1FzfEb3w5xoa1DdS9k3CX9FK0ctfMmTNdrXGuziG5M5qqW1tbWy+FvNc6vbbRxWub89MkICJNazeOfZFwxOmi69nSD/OLeQ/dr7NDd+FQsdyzJdmFp9ry/68CNTijdKP0Ap7H3J9oi8uBf+GM0rVyGvAiST53DWDu3LkRgbgGi+8z1GLw0tNrHT4XMxPtuSdXYRg2N2uLQMTqNKzdsPZKYLLDovu73e5YB9hd/Xfdj+nHifHEuhL2hJw3TF7a5GFNo/2uUCLvDAaDXzguLHOGYloFJ3b2iRzi9HSLN9nrn9r6r45Z2S0fbbJ6YSrBeOV6E/AE+TM2TgV+0tZETBv7fL4FCJ6zTgbrtvH5J3scPRP/e1tZ9WncpprgAZ/P9znAlClT+glD2Fpk95GSaaFwxn8jDLvrVCKv0nV9MsDKf61slkLeYp3fH9b4y3pnw2p3hzSe2pBQ62LlrrJdj7R1fAfTG5gPHNPO4zcCT2JaCVMwNx2KMP13I1rXuQTTx7WIxJ33npylpxRv24zGvNV/FShNcsw6TBfYuZhRNcWYfuBBmBuBs4BP0sgfienDjfIN4L4U51UP3I25uTYWcxMwKvOkVpkfp5EJ5gbd6PhBmxkmI/JGoYmzsDjC//nEKm695zhHkimaD0R4+dm18cP1JcUlv44+KCgqmIX54mJ8t6mZk5sz3/ja4NL4SZ9S668/6sI4CSBQF3jeq3vfwLwtAGD+5mLOGNLMhBxq8Vp5fK2H/WH7e2cI4ycr/7UyP36c9iOAZzB9aul4D9MN8TrJNwKbgE2YX8ZnWsfKgNOBc1r/7cmKV7kakjOftpuBLsPcpHqZxIt49PfzVuvfr4AfAQ+S3IL9FvAI5n7GX5Kc00rgp8ArJHYNiUZ0vN3690vg+8DvSN5F2gPcAFxnHbR9GQKBwAaJfMA69sXGRt57c3OSNTNj/rz17Nllr4UghbylpqZmP0B5dflRAvFf1vnDIxFOzELpAoyKGHytOaH2wom6rn89+qA1jTj2BhsS5qwqdURDfL7fzRtbi+2DklcW1y3+lwPL58qVJE8iiNIAfA/T9zafzKMvdmIq4UswA88fTH34IY2yeJMTr3QNzLumCsyQxPbELBvA/2JuaCU7XmAqyRdIVJSyde7Y1vn2WF4SeAwzzj2VkvoecVEdCVdht+a+B9O0j/Hqc+vYty+3UKttm5t4998JLs3aQF3g6Zhsw/0glrg+AfygsTknU+Gyphb6xFVBl8jfRlN1fT7fcon8g3V+2T43b23LbaNNYkZK2F3ZtGD6lTqb4cADaY7Zgqlwn8AZSzUCOHMF754oxds+moELMa3EhAIn7WA+cH+K+SriioFhKtnLgWvJLvMyanEnozdxRk6CTqutrW0SCFuN2qaGMK/9c138oRnx3JNrCIVtBpMhDXktrT9qr9d7lkSeYT1gekuIL4VzS9AplZJLmhLu6kdpBdoN0QdFBUV3ALbMsT+uKbG17cmUN7YU88k++4aaQDzo9/s/S/KUjuR2LKF0bdCE6dtSZSudI1v7oSe5Z5owM9ReyHGd2ZjZfe3hAGa42VM5ynyAOB0Sx2nWB21+GXw+3z8wd7pjLHp7C+tWZd5xF2Dp4h0s+9CenCUQjwcCgQBAeXl5AYLfWOeLpeTyJmdKNH6tJcxhkYROED8vLy8fDbBgwYJdSGwbejtbNJ5J3BRrF00RwRPrEp67BTObprMZhemXSsWPAV8HnEtPojtZvPk413RrGsDFgBPNYPcB89pxnIGZFvyKAzKbOLi30Ra69UHSzBdNaNcb0gjQqpwNQ/LXRz9j/JGZt+JZtiQhy3C3y+WKxbC6Clw/RnKk9YBvHAhRZjiT0KVJyQ8aW7itt00Zelwu12zMjCpKSkoebTzQeBWSo6MHzNvkYW9YI1Ojo77RzY64jsZIfurz+3Lv3Jk73yV1+Mw7mGmXCmfp6Ztr6V7/nZj1DpziHczveirucFjmu5hGS1scgXnxkZBC8dbV1b2v6/rjEvmD6NiW+ia21OfeFkcgZi1atGgrwHFfPm4QLfYSkEMNg/MSN8Vy4phwmKktIRYVWlLDBZd4vd4/+P3+92pqasJer/daBP+JTocMmO9MUkWt3+/P9VbGCQTwnRTzEvOL05NubzuK7mTxdjQLSO0jzYZ0Ff/m4/wdaG2KuWLMCn7bIc1VqKWw5TbMAh1O8kk4HJ4TfeBucd+FmTkV43uNzRRI53/7329qpsi+rABiBdH9fv9bAvG8w2INQzOuo2sosymYMYnJeB2zIInCeXq64k31+mtw/vexFnMzOxmv5kFmPan1ZSxOOaXi/eC9D7Yh+WWqYzJGcn20HoPX6z1WIGz+xsnhCFUhZ2Jo4xlkSM4/EPdZCI7Tdf07sdOT8iay201tG8ETXagew+lp5v+QZl6RPT3d1ZBK8earxOWOFHP5KkyVSvHGXHxpqxtFIpFHNLd2jBAi1S54e/nc7/P/O/pACvmQQMTqJJq+2PzmFVzY3MxbRQVssySESOSvy8vL5wWDwT1+v39NZVXlDQKRewqtgRSI23JexzlOSjHXROpCIorcOFQs3q5w59ZedgHDOlhmKsUbC+pPq3hbrdPvOXFGVnRdv1Aip1vHzmwOMyaS3/rORRK+1XSAB0ttG22DNbd2O2ZVIQJ1gd/DwWpthxDHpphbQPfoHtFdOVQUb7Z0hsWf3zqvbZPKvXHQyOyAE2kTA+Oi+LHpIec7/LbF1FCEYhnv7BUXcWj/OIZiZo8lY1lHnUgPRbkaFDE678tg8N/EpeX9vTg/ZRnjeb6ogAMi7nsgmUX3uo3KlHFp5rtCYsehTLaK51D5TirFayGtq0HX9ZESuYLklYMyYU2Jp+RLNTU1BwKBwDJvlfcxJD+MTn5Q4GZxgZuKPG2uAezQBM977ApeIt8P+ANPRB97de/rpN+Iahea0E6sq6urcWKtHIlPk4wnX21kFCbK4lXESPtlMDDuxxmlCzC28UDjjdEHLuG6jbidxz95islDSdwYj3uK40MWpJDiOlp3OXVdPw+HlC6AIY2HZs6cmdBorRMYmGbe2fqfiniU4lHESKl4vV5vtUB801GJkliqbm1t7U4ppC1c7QuX4KWi/NQlXu52sbAwwcj/m9/vfw9g0qRJhRJ5n8Nij123bt0VDq+ZDene1OzywfPLoaSslMWriJHqy6Ch8TDOv2Elbrf77uiD0uLSORJpC9p/trjIFu7lBIYQPFpSFO8w21/gLogVBCrtXXo9MMFRwQCC2V6vd4Dj62ZGuh9+V7DKD2UOFV+tIjXt+pyT+nh1Xb9cSllpHTtCdzGuIvML97K3I2xcfjBeWSIv9Xq9c/x+f21rqu511lTdZgF/9RRxY4NzeQzzi9ysdcXpFsFdCxcu3ASg6/oQKeXPrdOegj4cM/w0MmVv01ZWbLXVGCqTQt5BXDHkDiZdnJ7qtabIJz3lwtMui7FNxTtt2rTeoXDobuuYp5fAO8NNUUnmlmifARrPz24mcnDPTEghHwEqAcPv97/l1b0vYZYiBOCdwgJObwlxdCj3uN59QvBMfMSEZNXOsp0PHXwoZxPX72ni0OkMLB2TsbyBpWPYtn8NOxo3xMYE4uqKiorHFi9e3J52IfkgnQ83H72uFAfpKYonGT399dto03wNRUK3E5fxcfzZ2SldgN4DBUeflFCb9nhd1y+PPpaGTCh8/IeSYkdyCf/qKWJffPgYXBdtv1NRXXEcccVjBpSOYmjvI7KWOXHodOIufm7NrTnbOTkzdqaZz/wKo8iEnq548pWi2y1JULyVlZXjMLjWOjZgpMaE6txcgMee5sYTZ1NJ5D3l5eV9AQKBwGqBsCmmdZrGv4sKyIXVbhdvFiZ0+H3T7/e/Gn2sGdpD2N4LwZeGpMquTU+f4sGM6h/XQ1JyclVV1bk5LZw9a9PMj++Ik+jBZKt4DxWFfai8DkdIULxCEw8i7D2QvBe4STQYM8NdCN7zEpToYJfbFatl4PF47pbITdYDnvIUsTdL4RL4o6cIw/78kIzIWM1Mr9d7MfAV6wFj+h9L7+J00VfpOWrwlylw2XuuGYbx4PgzxndMpoid1aS2Ok7oqBPpoWSreFJ9Zvnyy6dqtZ2P19HjsCler9d7EhY/K8C4410MG+9MJMy4ChdDxiWsda3X650AUFNTs19Icat1skEInvZkp6feLixgudtuqUvkw4sXL/4UoLq62oOw1+R0a0UcMWhqVvLiKXAVc8TAavug4PCyXWWdscl2gNQtsKdgdgVW5IdsFdb+FHPFKeZyoX+KuWzreSiL10LsHnzmzJmutevXPiQsfklXAVSelza5rd0IAVVfL+DlB5qxlEooxOxXdC6A3+9/yqt7f4DFAptfVMD8HF0OrWw1wsZd0QcRGbmFON/mkYOnUejOruVPW4wpm8KGPR+x74ClHZPktvLy8r8Gg8GE7p95phaYlGTOhdl65X877nR6FPlQvG5MJZnQ4iVHUl2AU51PKpTFayFmfq5fv/6HAmFzSk4+xU1pf2fjaQeMEoz3JoR1nVNRVRFtdCkFBzPJnEQgfhYMBveAmQqNtHf87VU0gFH9UxXwykKm0Jg4ZHr8cG+32z3bUUHt4//SzF+JCnTvaqTrzHx4HmSm2mjNtjGCsngtaAAnnHBCf4mcZZ0o7Sc4+qT8xNRXnOum0GP/fbuk68Hy8vICAJ/PFxSIvzosNujz+Z6MPmjNULOlQk8cMh1NOJ9gNLB0DEN62X8fEnl5RXWF13FhqXmN1EXeJwPf6KBz6Wlkq3jqSd0x11lLwURPMZdtFbtUhlRPudjHXqcG0NLScidxufzeGW4KivLzfnh6CyafmuB7Pcrtdl9tGfoZztUPkAJxDa0fvtfrrcbsLhpjaJ8jGNTrMIfEJXLUsOlowvaahWZo+cgMTMV+zJYnqbiX1JsriuzIJapheYr5r2W5bjJGAqkMgiVZrpvq9fcUazj2Ot1VVVUTDWn80Do7ZJzGYVPym0E6abqbz+si7Nl68D2XyDsrKyv/EQgENvt8vi26rn/FEEaqGrLtQhiiwef31bU+NFOhpeXqI1wcOfjLuYpJSWlBPw4bcDyrtwesw1W6rl/m8/k6shHmo8CFKebHAI8Bl9JzfhAdQS7v5TtAVZK5czArz6VzSbSXq0mdXh5IMZcK5eO14DYM40EEsZ0rIUB3IHwsHS43eM8v4M0/2oqf90HjTuAqAJ/Pt9Rpubqufyc+FXrsgHJKC1Nt5DrD+IFV1O9ZTnOoITYmkffpuv6Sz9dhrd//A9SR/IcM5ibbRzjfhbUnk4vinQ/ckmSuCLgduCaH9aOMBnsMfxwbAF+Wa6d6/T3O1eCmjfYYeXBztols47MQUsSarlVXVx8TluEhucoRhmjw+/21AFLKA4kfcwd+7okvOdTU1JTffkeJ3Aq8ReoXPhuzHfUt5K8ZYU8iF8W7ALNQfbICTj8CXiK3nnmFwJ+BVCE9T5K95aosXqurIeKOXO8Ku06LJk1ICXXPhTnz2sK8Wr2RMAReTCh4vhO4E2Dq1KmDw5HwewLRN2dhAllRXVG1uHax3+/3P+PVvT8EYr6FNTsWM7LfpLxbvSu319EcbrAPSm5cunRpQ9vPyBs1wBOk76V3I2Z8709I7WdsDxqmlR2gc3phdTa5KF4D+C3J+wBqwDzgbODdJMekwo35fTg5xTGNwO+yWDuKcltZ0IKLgqtayz/G2LLaYM37+TVyPn4rbPPvAiD5ud/v3wEQNsKzgdyVrol1I0samnEtliuwISOs2PyOQ6LaprFlN+t2fBA/vMDv9z+XV8HJuR5Y0Y7jTsZ0O/wVM7Y6E+d/Cebmz6OYu/MLgc7I2jsUeBxIVWCpN2a44O2ktlrjORozvvuSNMfdD2zLYN14lOK1oAEUuAruAmzB/P4Xw4Tz1HuycY/kwzcSrN0lY8aMeQxai9ZIvuuw2Cpd1y8DWFy7+AMET1gnt+xfxbb9axwWeZDlm98iIm2vOYLkGjrvC7kXOJ/2/Zg04FvAe5ibOE9juisuBs7AVK4zMeOAb8FU0h+3yvgXps8+XeuhQ51cP+cQ8EPi+hTGUQD8ClgF3Ad8FVMhW3Fh+nIvwYxweR+oSCP7Y3L393eGq6GrKXt7ONnChQv3SWGvRdu4R7Lk3/m5I/S9EEpQ6lKT182dOzcCbRWtcYbWjaw+AG7N/XPiwtWWJSpHR9iybxVb45S6RD7q9/s/dFxYZnwKnAJszeA5AzEV7mxMBTwfU7n+E/gDcA+mkp6EKq5uxQklsBDT/ZOOYcDNmC6lvZjdRTYB64EmYB3wd+AsIF1K6E7gAqA5zXHp6Awl2NU27Q76eKP/CdQFnmz1fcaCp5e9HeEI3U3fwc6d/5bVBms/SLj4PROoDbwDoOv6RRJpK1pTNm4qw4/LPK5/9zo/Gxc/bR0aKoW8Bbht0aJFWyv1yl8JxAPRyag7YNzAyoS1siUiw6zYkuDG2GmEjVmOCcmNpZif+cvAMWmOVWSPU4rnd5h3D7emO9BCr9a/TNmJ6Tf+PIvnxqM21yxYrcpoqm7sCxIJg/9F56xeKaF2bshapwGgye1y3wpm0RoosJruAAAHP0lEQVSJvMc66Sr0MHjSmVnJ6zu6gpL+cdmPkpt0XT8CwAgbv8O0+mK0uQGWA2t2LKahxZ5KL4W8PRgMbk/ylM5gLabyfRAVwZAvnLT4fo654ZnPTcpPMDegax1ar6vd9ncqttt5n89XB/zNOrbhY4MNy5y5WK1YEGFnvf39l0LOXrRo0TqASCTyU+LyxAcf9TXchdlcrM06CUOnXEBceEahFPJegGAwGBKIH1snw0YLK7ZkszGcyIHQPlZv98cPLystLv2TIwKcpYmDUQyvkZ8fygp6ZkQDOP9+/g9mB5eEL1iONAO/AcrJPZLFirJ4LSTW40XcTFxuuG9emEg4t+9NcyN88K8E/+ma0uLSBwCqq6tHILjZOlnUewhlh+dWJrakbAz9RpXbByUzvF7v6QA+n+9NTD9ljPo9n7CzYWNOcgFWbHmXsGHXM5rQrqmpqXHekewcH2PeXk4EHgZ25LjeHuBZzAyrSWTmKzyUfqz5uJB9CFRjvrf/Ibf3azdmZbojgZswL8RO0hmfZWfcvbUrUaRN562u67e29iCLUXGum8mnZF8ictE/Q6xYEPc+SC7w+/0vAHirvH9H2kNaxpxwFb2HTMxaZpTwgb189sZsjJCtPszySDgyJRgMhqqrq8dHIpGPrQXg+xYPZuq4yxBZ+ud3NdZTu/ZZrJ+DQDzr8/kuSv6sLokL07L6GnAc8CVgLG1vnO3C3MD5FDNe1495q9rVrFyN5I1eDVJHDnRlhmBeNL+KWTxnAm3X7DUwN9tWYX5O72Iq7mxr7baHka3nZ+UApoLfTupCQN2J4SSvk1xPq+HRplaZNGlSYWmv0o+BWNMxdyFceEcRJX0zV0Q7Nhq8fH9LvG/3Lb/PfzK0Fq0RLLSeT59hRzN66hUZy0rGthVvsmXZa/ZByY/9fv8jALquPyCRth3jY4adyqj+kzOWJZEsXP0Uew/YIrWa3C73xKhb5RCgH2aoUgGmtdQMdHQiiCI9ZZifVZR9mHcheQoWVbSHpFrU6/Wej+AF69jIiS7GHJt5lNdntRG2rbPdaYSlIacEAoFlgKbreq1ExioiCc3N+FN+SlHvnOvjxJBGmM/fvJeW/TZluCsSjkwIBoPby8vL+7rcrk+xXJUL3R6OHJS5q2PvgW2s2xVXxEkyy+/335nd2SsUikOJlOarV/e+DpzutFCJfCjgC1wPoOv6dyXyz9b5QRNOZsgx5zgtlr31S1lfZxOFQMzx+XxXA3i93u8jeMxxwYL1kVBkYjAYzOetnEKh6CakNF81oV2P8/65HW7N/SuAadOm9ZbIu62T7qLeDDzqFIdFmvQZMZleQ46yjUnkVbquTwbw+/1PCITTu8RI5PVK6SoUiigpFW9dXd0nApGsMEdWSCFvra2t3QkQCoVuw8yyiTHkmLNxFTjX8yyeYZPPR2i2fSGXREbbyhtSSlssswO8FagLPO/gegqFopuTdqfshBNO6N8can5HIErTHZsOiVx12OjDzpg7d26ksrJynNDEMiw7gJ7+oxh34vWIPNel/GLJPHases82JhAX+ny+eQDeKu/vkZyWsyCJdLlcM2praz/KeS2FQnHI0Gm5zG2Fj4396jWUDhyfd9mRlkY+nT8LI2LZ2JWs8vv9R6AybBQKRZ7poJLniUhkTfxY4/bVHSL7wO56u9IF0KhBKV2FQtEBdJriDdQFHkfY+zdtXfEmocZdyZ7iCFIabPowweW6NxKK3JFXwQqFQtFKpylewJDCvpElIyE2f/RKXoXuXPkezXu/sA9KZgWDwS/afoZCoVA4S2cqXgK1gUUS+ax1bM/G92nYtjIv8iLN+9m64vX44U8ikcgjeRGoUCgUbdCpitc8Ae1m4lJNv1jyHFI6X1Nj88evEGmx1/6QmrwhGAx2tVoCCoXiEKbTOwTU19fvHTlypBs4MToWbt6Pu6gXJWVjUjwzM5p2beCLJfOI2z97KVAXuMsxIQqFQtEOOt3iBdA07X7MYtwxti6bT7hlvzMCpGzLim5pLYGpUCgUHUqXULy1tbVN8UowEmpi67L5yZ6SEbvXB2jcGVcUTPCAz+dzoqWJQqFQZESXULwAPp/vufjY3l1r6mjauT6ndY1wM1uWvRo/XF9SXJJr11SFQqHIii6jeAEwuAZLEWopDb5Y+jzxhXwzYevy1wk12WssSyFvqampcciPoVAoFJnR6ZtrVjZt2rRtxIgRwxDE2vyGmnZT2GsQxX2HZ7xe874t1AefjlfctdGSlAqFQtEZZN/LJ09EIpFfuNyui4D+0bHNS1+iYfuqjNdq2rkOadjaDRmtzS1VarBCoeg0Oq1ITiq8Vd4fI/md0+sKxJ98Pt+VTq+rUCgUmdC1fLytjBk1Zo5EOl1Kca9hGL9weE2FQqHImC6peOfOnRsRUlzn5JoC8YtAILDZyTUVCoUiG7qkqyGKt8p7m5RytANLNRlh42aVGqxQKBQKhUKhUCgUCkW++X9YWW/596ktuwAAAABJRU5ErkJggg==;" vertex="1" parent="1">
                    <mxGeometry width="350" height="103" as="geometry"/>
                </mxCell>
            </root>
        </mxGraphModel>
    </diagram>
</mxfile>